<svg xmlns="http://www.w3.org/2000/svg" aria-hidden="true" style="position:absolute;width:0;height:0;overflow:hidden"><defs><symbol id="icon-close" viewBox="0 0 32 32"><path fill="none" stroke="#d9e9eb" stroke-linecap="round" stroke-linejoin="round" stroke-width="1.333" d="m7 7 9 9m0 0-9 9m9-9 9 9m-9-9 9-9" style="stroke:var(--color1, #d9e9eb)"/></symbol><symbol id="icon-email" viewBox="0 0 32 32"><path fill="#6e5d4c" d="M6.155 25.333q-.921 0-1.537-.616c-.616-.616-.616-.924-.617-1.539V8.821q0-.922.617-1.537c.617-.615.924-.616 1.536-.617h19.693q.92 0 1.536.617c.616.617.616.924.617 1.537V23.18q0 .92-.617 1.537c-.617.617-.924.617-1.536.616zM16 16.155 5.333 9.18v14q0 .359.231.589c.231.23.351.231.591.231h19.692q.359 0 .589-.231c.23-.231.231-.351.231-.591v-14L16 16.154zm0-1.488L26.256 8H5.744zM5.333 9.18V8v15.18q0 .359.231.589c.231.23.351.231.591.231h-.821V9.18z" style="fill:var(--color2, #6e5d4c)"/></symbol><symbol id="icon-hand" viewBox="0 0 32 32"><path fill="none" stroke="#6e5d4c" stroke-linejoin="round" stroke-width="2.667" d="M4.702 6.667h14.667m-14.667 0v-4h14.667v4m-14.667 0v11.289c0 1.913 1.296 2.577 1.992 2.702q.696.126 8.669 1.333v5.34a2.02 2.02 0 0 0 .586 1.417 2 2 0 0 0 1.417.587h.002a1.995 1.995 0 0 0 1.848-1.238c.1-.243.152-.503.151-.766q-.014-13.521.002-13.518c1.835 0 3.223 3.523 5.631 3.523s2.812-1.28 1.85-2.413q-.962-1.134-7.481-8.256" style="stroke:var(--color2, #6e5d4c)"/></symbol><symbol id="icon-menu" viewBox="0 0 32 32"><path fill="none" stroke="#d9e9eb" stroke-linecap="round" stroke-width="1.333" d="M6.667 8h18.667M6.667 24h18.667M6.667 16h18.667" style="stroke:var(--color1, #d9e9eb)"/></symbol><symbol id="icon-playstore" viewBox="0 0 149 32"><path fill="#eb4335" d="M12.696 15.073.116 28.424l.002.007a3.395 3.395 0 0 0 3.281 2.518c.629 0 1.218-.17 1.724-.468l.04-.024 14.16-8.17z" style="fill:var(--color3, #eb4335)"/><path fill="#fabc13" d="m25.422 12.799-.012-.008-6.113-3.545-6.887 6.129 6.911 6.91 6.081-3.508a3.398 3.398 0 0 0 .02-5.977z" style="fill:var(--color4, #fabc13)"/><path fill="#547dbf" d="M.116 3.084A3.3 3.3 0 0 0 0 3.958V27.55q0 .457.116.874l13.012-13.01z" style="fill:var(--color5, #547dbf)"/><path fill="#30a851" d="m12.788 15.753 6.511-6.509-14.144-8.2a3.402 3.402 0 0 0-5.04 2.035v.004l12.672 12.67z" style="fill:var(--color6, #30a851)"/><path fill="#d9e9eb" d="M43.751 1.725a2.7 2.7 0 0 0-.937-.57 3.2 3.2 0 0 0-1.142-.202q-.62 0-1.142.206a2.6 2.6 0 0 0-.896.59 2.8 2.8 0 0 0-.584.909q-.205.526-.205 1.16c0 .634.068.811.205 1.165q.205.53.579.919.38.389.891.6.517.211 1.132.211.553 0 1.019-.172c.466-.172.584-.279.819-.492q.354-.32.574-.767c.22-.447.241-.628.282-.988h-2.617v-.841h3.615l.031.403q0 .84-.271 1.539c-.271.699-.439.868-.773 1.209q-.496.507-1.183.787a4 4 0 0 1-1.505.275 4.2 4.2 0 0 1-1.572-.285 3.9 3.9 0 0 1-1.255-.806 3.7 3.7 0 0 1-.83-1.219 3.9 3.9 0 0 1-.292-1.514q0-.826.297-1.524.297-.703.83-1.224a3.8 3.8 0 0 1 1.26-.806 4.2 4.2 0 0 1 1.572-.29q.804 0 1.531.265.732.266 1.301.762l-.732.698zm2.351 5.796V.148h4.788v.954h-3.661v2.207h3.451v.954h-3.451v2.305h3.712v.954zm8.792 0h-1.127v-6.42h-2.402V.147h5.93v.954h-2.402v6.42zm4.953 0V.148h1.127v7.373zm5.126 0h-1.127v-6.42h-2.402V.147h5.93v.954h-2.402v6.42zm8.634.147a4.4 4.4 0 0 1-1.603-.285 3.9 3.9 0 0 1-1.275-.801 3.7 3.7 0 0 1-.835-1.219 3.9 3.9 0 0 1-.297-1.529q0-.83.297-1.529.297-.703.835-1.219a3.9 3.9 0 0 1 1.275-.801A4.4 4.4 0 0 1 73.607 0q.87 0 1.598.285.733.285 1.27.801a3.6 3.6 0 0 1 .84 1.219q.297.698.297 1.529 0 .826-.297 1.529a3.7 3.7 0 0 1-.84 1.219 3.8 3.8 0 0 1-1.27.801 4.4 4.4 0 0 1-1.598.285m0-.954q.615 0 1.137-.216c.522-.216.65-.346.906-.605q.384-.393.594-.914.215-.526.215-1.145c0-.619-.072-.795-.215-1.145a2.72 2.72 0 0 0-1.5-1.519q-.522-.216-1.137-.216c-.615 0-.789.072-1.136.216a2.7 2.7 0 0 0-.907.605q-.384.389-.599.914c-.215.525-.215.732-.215 1.145q0 .62.215 1.145c.215.525.343.657.599.919q.39.388.907.605.522.211 1.136.211m11.517.807h-1.239l-4.414-5.692v5.692h-1.126V.148h1.239l4.415 5.697V.148h1.126v7.373zM49.921 15.08a5 5 0 0 0-1.741-1.072 6.1 6.1 0 0 0-2.14-.374q-1.158 0-2.12.383a4.7 4.7 0 0 0-1.649 1.101 4.9 4.9 0 0 0-1.075 1.691q-.38.974-.379 2.163 0 1.2.379 2.202.39.993 1.086 1.72.707.728 1.669 1.121c.962.393 1.348.393 2.12.393q1.004 0 1.843-.295a4.6 4.6 0 0 0 1.475-.865q.645-.57 1.055-1.366c.41-.796.454-1.121.543-1.77h-4.854v-2.005h7.241l.072.983q0 1.681-.543 3.077a7 7 0 0 1-1.526 2.409q-.993 1.013-2.355 1.563c-1.362.55-1.912.551-3.011.551q-1.7 0-3.154-.58a7.9 7.9 0 0 1-2.53-1.612 7.5 7.5 0 0 1-1.68-2.438q-.594-1.396-.594-3.038 0-1.632.594-3.028a7.6 7.6 0 0 1 1.669-2.448 7.6 7.6 0 0 1 2.519-1.612q1.455-.58 3.144-.58a9 9 0 0 1 3.072.531q1.474.531 2.632 1.524zm9.577 11.512q-1.557 0-2.796-.669a5.15 5.15 0 0 1-1.946-1.819q-.707-1.16-.707-2.625c0-1.465.236-1.848.707-2.615a5.1 5.1 0 0 1 1.946-1.828q1.239-.669 2.796-.669 1.568 0 2.796.669c1.228.669 1.461 1.055 1.925 1.828q.707 1.15.707 2.615c0 1.465-.236 1.852-.707 2.625q-.696 1.15-1.925 1.819c-1.229.669-1.751.669-2.796.669m-.011-2.172q.819 0 1.465-.383c.646-.383.768-.606 1.014-1.052q.38-.668.379-1.514 0-.835-.379-1.494-.369-.669-1.014-1.052c-.645-.383-.918-.383-1.465-.383q-.809 0-1.465.383-.645.384-1.024 1.052a3 3 0 0 0-.369 1.494q0 .846.369 1.514.38.668 1.024 1.052.655.383 1.465.383m11.38 2.172q-1.557 0-2.796-.669a5.15 5.15 0 0 1-1.946-1.819q-.707-1.16-.707-2.625c0-1.465.236-1.848.707-2.615a5.1 5.1 0 0 1 1.946-1.828q1.239-.669 2.796-.669 1.568 0 2.796.669c1.228.669 1.461 1.055 1.925 1.828q.707 1.15.707 2.615c0 1.465-.235 1.852-.707 2.625q-.696 1.15-1.925 1.819c-1.229.669-1.751.669-2.796.669m-.011-2.172q.819 0 1.464-.383c.645-.383.768-.606 1.014-1.052q.379-.668.379-1.514 0-.835-.379-1.494-.369-.669-1.014-1.052c-.645-.383-.918-.383-1.464-.383q-.809 0-1.465.383-.645.384-1.024 1.052a3 3 0 0 0-.369 1.494q0 .846.369 1.514.38.668 1.024 1.052.655.383 1.465.383m10.878 2.054q-1.424 0-2.54-.659c-1.116-.659-1.331-1.039-1.761-1.799q-.645-1.15-.646-2.595 0-1.455.646-2.595c.646-1.14 1.017-1.36 1.761-1.799q1.116-.659 2.54-.659 1.116 0 2.058.413c.942.413 1.161.659 1.598 1.15l.123-1.366h2.212v9.565q0 1.632-.727 2.841a4.8 4.8 0 0 1-2.027 1.868q-1.311.669-3.103.669a7.08 7.08 0 0 1-4.455-1.524l1.035-1.976q1.372 1.327 3.256 1.327 1.065 0 1.844-.413a2.9 2.9 0 0 0 1.219-1.15q.44-.738.44-1.73v-.944q-.656.649-1.547 1.013c-.891.364-1.236.364-1.925.364zm.552-2.153q.81 0 1.465-.344a2.77 2.77 0 0 0 1.055-.963q.4-.609.4-1.386v-.433q0-.777-.4-1.376-.39-.6-1.055-.944a3.1 3.1 0 0 0-1.465-.354q-.84 0-1.505.383a2.8 2.8 0 0 0-1.055 1.032q-.378.659-.379 1.484c-.001.825.127 1.045.379 1.484q.39.659 1.055 1.042.666.374 1.505.374zm9.915 2.075h-2.693V11.65h2.693zm11.184-1.141q-1.914 1.337-4.188 1.337-1.649 0-2.96-.688c-1.311-.688-1.567-1.085-2.079-1.878q-.757-1.19-.757-2.694 0-1.425.686-2.546a5 5 0 0 1 1.894-1.77q1.209-.65 2.724-.649 1.577 0 2.765.718a4.9 4.9 0 0 1 1.864 1.976q.666 1.258.666 2.93v.315h-7.886q.185.669.645 1.18.47.511 1.168.796c.698.285.987.285 1.567.285q1.638 0 3.031-1.022zm-7.374-4.365h5.653a2.7 2.7 0 0 0-.471-1.288 2.56 2.56 0 0 0-.993-.855 2.9 2.9 0 0 0-1.362-.315q-.768 0-1.372.315c-.604.315-.73.501-.983.875a2.8 2.8 0 0 0-.471 1.268zm13.223 5.506V11.65h5.08q1.926 0 3.307.59 1.394.59 2.13 1.681.748 1.091.747 2.605 0 1.504-.747 2.605-.737 1.101-2.12 1.701-1.383.59-3.298.59h-2.396v4.974h-2.704zm2.704-7.246h2.121q1.771 0 2.724-.688.951-.698.952-1.937c.001-1.239-.321-1.465-.963-1.917q-.953-.678-2.714-.678h-2.121zm12.711 7.246h-2.693V11.65h2.693zm10.744 0h-2.192l-.144-1.209a3.84 3.84 0 0 1-1.403 1.042 4.65 4.65 0 0 1-1.864.364q-1.085 0-1.936-.403a3.4 3.4 0 0 1-1.341-1.121 2.8 2.8 0 0 1-.481-1.612q0-.954.522-1.671.532-.727 1.444-1.14.921-.413 2.099-.413.717 0 1.434.157.727.157 1.341.442v-.315q0-.649-.368-1.121c-.368-.472-.577-.557-.993-.727a3.6 3.6 0 0 0-1.403-.265q-.706 0-1.414.236a4.6 4.6 0 0 0-1.321.678l-.717-1.897a9.3 9.3 0 0 1 2.007-.787 8 8 0 0 1 2.017-.265q1.444 0 2.499.551 1.055.54 1.628 1.553.584 1.003.584 2.369v5.554zm-5.08-1.75q.666 0 1.229-.265.574-.266.932-.737.368-.482.389-1.101v-.108a3.7 3.7 0 0 0-1.086-.511 4.1 4.1 0 0 0-1.219-.187q-.942 0-1.546.413-.604.404-.604 1.062 0 .403.246.737.246.325.676.511.44.187.983.187zm11.297 6.665h-2.694l2.131-4.955-5.079-9.791h2.837l3.441 7.029 3.031-7.029h2.694z" style="fill:var(--color1, #d9e9eb)"/></symbol><symbol id="icon-reward" viewBox="0 0 48 48" fill="none">
  <path d="M17.2812 36.3291C17.2709 36.3082 17.2602 36.2876 17.25 36.2666C17.2601 36.2876 17.2709 36.3082 17.2812 36.3291ZM30.75 36.2666C30.7398 36.2876 30.7291 36.3082 30.7188 36.3291C30.7291 36.3082 30.7399 36.2876 30.75 36.2666ZM17.1523 36.0557C17.1394 36.0268 17.1268 35.9978 17.1143 35.9688C17.1268 35.9978 17.1395 36.0268 17.1523 36.0557ZM30.8848 35.9688C30.8722 35.9978 30.8596 36.0268 30.8467 36.0557C30.8596 36.0268 30.8722 35.9978 30.8848 35.9688ZM17.0322 35.7705C17.0158 35.7294 17 35.688 16.9844 35.6465C17 35.688 17.0159 35.7293 17.0322 35.7705ZM31.0146 35.6465C30.999 35.688 30.9832 35.7293 30.9668 35.7705C30.9832 35.7293 30.999 35.688 31.0146 35.6465ZM16.9189 35.4688C16.899 35.4115 16.8809 35.3537 16.8623 35.2959C16.8809 35.3536 16.899 35.4115 16.9189 35.4688ZM31.1377 35.2959C31.1191 35.3538 31.1001 35.4114 31.0801 35.4688C31.1001 35.4114 31.1191 35.3537 31.1377 35.2959ZM16.7227 34.8125L16.6572 34.5273C16.655 34.5167 16.6535 34.5058 16.6514 34.4951C16.673 34.6015 16.6965 34.7074 16.7227 34.8125ZM16.6172 34.3086C16.6093 34.2643 16.6008 34.2202 16.5938 34.1758C16.6008 34.2202 16.6093 34.2643 16.6172 34.3086ZM31.4053 34.1758C31.3982 34.2201 31.3907 34.2644 31.3828 34.3086C31.3906 34.2644 31.3982 34.2202 31.4053 34.1758ZM16.5713 34.0205C16.5609 33.9454 16.551 33.8702 16.543 33.7949C16.551 33.8704 16.561 33.9455 16.5713 34.0205ZM31.4561 33.7949C31.448 33.8702 31.4381 33.9454 31.4277 34.0205C31.438 33.9455 31.448 33.8704 31.4561 33.7949ZM16.5332 33.6943C16.5254 33.6111 16.5196 33.5277 16.5146 33.4443C16.5196 33.5279 16.5255 33.6112 16.5332 33.6943ZM31.4854 33.4443C31.4804 33.5277 31.4736 33.611 31.4658 33.6943C31.4735 33.6112 31.4804 33.5279 31.4854 33.4443ZM16.5 32.9941C16.5 32.8818 16.5027 32.7694 16.5078 32.6572C16.5027 32.7692 16.5001 32.8815 16.5 32.9941ZM16.5156 32.5381C16.5207 32.4547 16.5263 32.3713 16.5342 32.2881C16.5263 32.3712 16.5208 32.4546 16.5156 32.5381ZM31.4648 32.2881C31.4727 32.3713 31.4783 32.4547 31.4834 32.5381C31.4782 32.4545 31.4728 32.3712 31.4648 32.2881ZM16.543 32.21C16.552 32.1242 16.5622 32.0386 16.5742 31.9531C16.5622 32.0384 16.5521 32.1241 16.543 32.21ZM31.4248 31.9531C31.4368 32.0386 31.447 32.1242 31.4561 32.21C31.447 32.1241 31.4368 32.0385 31.4248 31.9531ZM16.5938 31.8242C16.6089 31.7282 16.6256 31.6325 16.6445 31.5371C16.6256 31.6324 16.609 31.7281 16.5938 31.8242ZM31.3555 31.5371C31.3744 31.6325 31.3911 31.7282 31.4062 31.8242C31.391 31.7281 31.3744 31.6324 31.3555 31.5371ZM17.208 29.8184C16.9561 30.3562 16.7691 30.9234 16.6504 31.5078C16.7565 30.9841 16.9178 30.4696 17.1357 29.9746C17.1589 29.922 17.1837 29.8703 17.208 29.8184ZM30.8643 29.9746C31.0822 30.4695 31.2425 30.9842 31.3486 31.5078C31.23 30.9234 31.0439 30.3561 30.792 29.8184C30.8163 29.8703 30.8411 29.922 30.8643 29.9746ZM25.2725 25.1631L27.5576 26.3945C28.9639 27.1523 30.0884 28.3389 30.7725 29.7783C30.4084 29.0129 29.9145 28.3071 29.3037 27.6963C27.8972 26.2898 25.9891 25.5 24 25.5C22.0109 25.5 20.1028 26.2898 18.6963 27.6963C18.0854 28.3072 17.5907 29.0128 17.2266 29.7783C17.9106 28.3388 19.036 27.1523 20.4424 26.3945L22.7275 25.1631L22.4521 24.9932C22.9193 25.2746 23.4542 25.4238 24 25.4238C24.5456 25.4238 25.0799 25.2744 25.5469 24.9932L25.2725 25.1631ZM10.5 7.5H16.5V21.3125L8.9209 16.6279C8.03859 16.081 7.50004 15.1168 7.5 14.0791V10.5C7.5 9.70435 7.8163 8.94152 8.37891 8.37891C8.94152 7.8163 9.70435 7.5 10.5 7.5ZM37.5 7.5C38.2956 7.5 39.0585 7.8163 39.6211 8.37891C40.1837 8.94152 40.5 9.70435 40.5 10.5V14.0791C40.4996 14.5898 40.3688 15.0921 40.1201 15.5381C39.9024 15.9285 39.6004 16.2645 39.2373 16.5225L39.0781 16.6279L31.5 21.3125V7.5H37.5ZM31.3477 34.4951C31.3455 34.5057 31.345 34.5167 31.3428 34.5273L31.2754 34.8184C31.3021 34.7113 31.3256 34.6034 31.3477 34.4951ZM16.5068 33.3262C16.5039 33.2598 16.5031 33.1933 16.502 33.127C16.5031 33.1935 16.504 33.2599 16.5068 33.3262ZM31.498 33.0508C31.4974 33.1426 31.4962 33.2344 31.4922 33.3262C31.4962 33.2346 31.4974 33.1428 31.498 33.0508Z" fill="#6E5D4C" stroke="#6E5D4C" stroke-width="3" />
</symbol><symbol id="icon-route" viewBox="0 0 32 32"><path fill="#6e5d4c" stroke="#6e5d4c" stroke-width="1.333" d="M24 22c-.546 0-1.035.192-1.422.58A1.96 1.96 0 0 0 22 23.999c-.001.547.192 1.036.579 1.423s.875.579 1.421.577V26l.001-.001h.001c.545-.001 1.033-.192 1.419-.579s.579-.876.578-1.422a1.96 1.96 0 0 0-.578-1.419 1.95 1.95 0 0 0-1.422-.58zM8 6c-.546 0-1.035.192-1.422.58A1.96 1.96 0 0 0 6 7.999c-.001.547.192 1.036.579 1.423s.875.579 1.421.577V10l.001-.001h.001c.545-.001 1.033-.192 1.419-.579s.579-.876.578-1.422a1.96 1.96 0 0 0-.578-1.419 1.95 1.95 0 0 0-1.422-.58zm-.667 5.303-.434-.161a3.46 3.46 0 0 1-1.612-1.22A3.14 3.14 0 0 1 4.667 8c0-.936.32-1.711.971-2.362S7.064 4.667 8 4.667s1.711.32 2.362.971.971 1.426.971 2.362c0 .729-.207 1.362-.619 1.922a3.44 3.44 0 0 1-1.612 1.219l-.436.161v14.697h6.667V4.666h9.333v16.03l.434.161a3.45 3.45 0 0 1 1.613 1.222c.413.56.62 1.192.619 1.919v.001c0 .936-.32 1.711-.971 2.362s-1.426.971-2.362.971-1.711-.32-2.362-.971-.971-1.426-.971-2.362c0-.728.207-1.369.623-1.941a3.22 3.22 0 0 1 1.593-1.195l.451-.154V5.999h-6.667v21.333H7.333v-16.03z" style="fill:var(--color2, #6e5d4c);stroke:var(--color2, #6e5d4c)"/></symbol><symbol id="icon-speed" viewBox="0 0 32 32"><path fill="none" stroke="#6e5d4c" stroke-linejoin="round" stroke-width="2.667" d="M20.198 12.519s-2.153 6.068-3.176 7.127a2.67 2.67 0 0 1-3.746.041 2.664 2.664 0 0 1-.09-3.745c1.023-1.06 7.012-3.423 7.012-3.423z" style="stroke:var(--color2, #6e5d4c)"/><path fill="none" stroke="#6e5d4c" stroke-linecap="round" stroke-linejoin="round" stroke-width="2.667" d="M25.9 25.9A13.97 13.97 0 0 0 30 16c0-7.732-6.268-14-14-14S2 8.268 2 16a13.96 13.96 0 0 0 4.1 9.9M16 2.667v2.667m9.897 2.094-2.072 1.678m4.523 9.049-2.598-.6m-22.099.6 2.599-.6M6.103 7.428l2.072 1.678" style="stroke:var(--color2, #6e5d4c)"/></symbol><symbol id="icon-swipe" viewBox="0 0 32 32"><path fill="#6e5d4c" stroke="#6e5d4c" stroke-width="1.333" d="M13.335 8.667c.207 0 .352.062.478.189s.188.27.187.475v10.003h2.667v-4.667c0-.21.064-.353.188-.477a.63.63 0 0 1 .48-.189c.207 0 .352.062.478.189s.188.27.187.475v4.67h2.667v-3.333c0-.21.064-.353.188-.477a.63.63 0 0 1 .48-.189c.207 0 .352.062.478.189s.188.27.187.475v3.337h2.667v-.667c0-.21.064-.353.188-.477a.63.63 0 0 1 .48-.189c.207 0 .352.062.478.189s.188.27.187.475v5.337c0 1.288-.451 2.375-1.371 3.296s-2.007 1.371-3.296 1.371h-5.566q-.67 0-1.281-.251a3.3 3.3 0 0 1-1.081-.721h-.001l-6.337-6.369.538-.555c.273-.272.584-.45.944-.542.321-.082.63-.088.938-.021l.132.033 3.049.878V9.338c0-.21.064-.353.188-.477a.63.63 0 0 1 .48-.189zM16 2q3.02 0 5.809.995c2.789.995 3.56 1.625 5.102 2.887L28 6.775V3.334h.667v5.333h-5.333V8h4.969l-1.329-1.167a16.8 16.8 0 0 0-5.102-3.089Q19.055 2.667 16 2.667c-3.055 0-3.995.359-5.872 1.077a16.8 16.8 0 0 0-5.102 3.089L3.697 8h4.969v.667H3.333V3.334H4v3.441l1.089-.893Q7.4 3.989 10.191 2.995C12.982 2.001 13.986 2 16 2z" style="fill:var(--color2, #6e5d4c);stroke:var(--color2, #6e5d4c)"/></symbol><symbol id="icon-arrow-right" viewBox="0 0 60 60" fill="none">
  <g filter="url(#filter0_d_8001_75)">
    <rect width="56" height="56" rx="2" fill="#6E5D4C" shape-rendering="crispEdges" />
    <path d="M22 40L34 28L22 16" stroke="#D9E9EB" stroke-width="2" stroke-linecap="round" stroke-linejoin="round" />
  </g>
  <defs>
    <filter id="filter0_d_8001_75" x="0" y="0" width="60" height="60" filterUnits="userSpaceOnUse" color-interpolation-filters="sRGB">
      <feFlood flood-opacity="0" result="BackgroundImageFix" />
      <feColorMatrix in="SourceAlpha" type="matrix" values="0 0 0 0 0 0 0 0 0 0 0 0 0 0 0 0 0 0 127 0" result="hardAlpha" />
      <feOffset dx="2" dy="2" />
      <feGaussianBlur stdDeviation="1" />
      <feComposite in2="hardAlpha" operator="out" />
      <feColorMatrix type="matrix" values="0 0 0 0 0.191932 0 0 0 0 0.189961 0 0 0 0 0.177146 0 0 0 0.6 0" />
      <feBlend mode="normal" in2="BackgroundImageFix" result="effect1_dropShadow_8001_75" />
      <feBlend mode="normal" in="SourceGraphic" in2="effect1_dropShadow_8001_75" result="shape" />
    </filter>
  </defs>
</symbol><symbol id="icon-arrow-left" viewBox="0 0 60 60" fill="none">
  <g filter="url(#filter0_d_8001_73)">
    <rect width="56" height="56" rx="2" fill="#6E5D4C" shape-rendering="crispEdges" />
    <path d="M34 40L22 28L34 16" stroke="#D9E9EB" stroke-width="2" stroke-linecap="round" stroke-linejoin="round" />
  </g>
  <defs>
    <filter id="filter0_d_8001_73" x="0" y="0" width="60" height="60" filterUnits="userSpaceOnUse" color-interpolation-filters="sRGB">
      <feFlood flood-opacity="0" result="BackgroundImageFix" />
      <feColorMatrix in="SourceAlpha" type="matrix" values="0 0 0 0 0 0 0 0 0 0 0 0 0 0 0 0 0 0 127 0" result="hardAlpha" />
      <feOffset dx="2" dy="2" />
      <feGaussianBlur stdDeviation="1" />
      <feComposite in2="hardAlpha" operator="out" />
      <feColorMatrix type="matrix" values="0 0 0 0 0.191932 0 0 0 0 0.189961 0 0 0 0 0.177146 0 0 0 0.6 0" />
      <feBlend mode="normal" in2="BackgroundImageFix" result="effect1_dropShadow_8001_73" />
      <feBlend mode="normal" in="SourceGraphic" in2="effect1_dropShadow_8001_73" result="shape" />
    </filter>
  </defs>
</symbol><symbol id="icon-arrow-back" viewBox="0 0 24 24" fill="none">
  <path d="M16 19.5L8 12L16 4.5" stroke="#1C1C1B" stroke-linecap="round" stroke-linejoin="round" />
</symbol></defs></svg>