<svg xmlns="http://www.w3.org/2000/svg" aria-hidden="true" style="position:absolute;width:0;height:0;overflow:hidden"><defs><symbol id="icon-close" viewBox="0 0 32 32"><path fill="none" stroke="#d9e9eb" stroke-linecap="round" stroke-linejoin="round" stroke-width="1.333" d="m7 7 9 9m0 0-9 9m9-9 9 9m-9-9 9-9" style="stroke:var(--color1, #d9e9eb)"/></symbol><symbol id="icon-email" viewBox="0 0 32 32"><path fill="#6e5d4c" d="M6.155 25.333q-.921 0-1.537-.616c-.616-.616-.616-.924-.617-1.539V8.821q0-.922.617-1.537c.617-.615.924-.616 1.536-.617h19.693q.92 0 1.536.617c.616.617.616.924.617 1.537V23.18q0 .92-.617 1.537c-.617.617-.924.617-1.536.616zM16 16.155 5.333 9.18v14q0 .359.231.589c.231.23.351.231.591.231h19.692q.359 0 .589-.231c.23-.231.231-.351.231-.591v-14L16 16.154zm0-1.488L26.256 8H5.744zM5.333 9.18V8v15.18q0 .359.231.589c.231.23.351.231.591.231h-.821V9.18z" style="fill:var(--color2, #6e5d4c)"/></symbol><symbol id="icon-hand" viewBox="0 0 32 32"><path fill="none" stroke="#6e5d4c" stroke-linejoin="round" stroke-width="2.667" d="M4.702 6.667h14.667m-14.667 0v-4h14.667v4m-14.667 0v11.289c0 1.913 1.296 2.577 1.992 2.702q.696.126 8.669 1.333v5.34a2.02 2.02 0 0 0 .586 1.417 2 2 0 0 0 1.417.587h.002a1.995 1.995 0 0 0 1.848-1.238c.1-.243.152-.503.151-.766q-.014-13.521.002-13.518c1.835 0 3.223 3.523 5.631 3.523s2.812-1.28 1.85-2.413q-.962-1.134-7.481-8.256" style="stroke:var(--color2, #6e5d4c)"/></symbol><symbol id="icon-menu" viewBox="0 0 32 32"><path fill="none" stroke="#d9e9eb" stroke-linecap="round" stroke-width="1.333" d="M6.667 8h18.667M6.667 24h18.667M6.667 16h18.667" style="stroke:var(--color1, #d9e9eb)"/></symbol><symbol id="icon-playstore" viewBox="0 0 149 32"><path fill="#eb4335" d="M12.696 15.073.116 28.424l.002.007a3.395 3.395 0 0 0 3.281 2.518c.629 0 1.218-.17 1.724-.468l.04-.024 14.16-8.17z" style="fill:var(--color3, #eb4335)"/><path fill="#fabc13" d="m25.422 12.799-.012-.008-6.113-3.545-6.887 6.129 6.911 6.91 6.081-3.508a3.398 3.398 0 0 0 .02-5.977z" style="fill:var(--color4, #fabc13)"/><path fill="#547dbf" d="M.116 3.084A3.3 3.3 0 0 0 0 3.958V27.55q0 .457.116.874l13.012-13.01z" style="fill:var(--color5, #547dbf)"/><path fill="#30a851" d="m12.788 15.753 6.511-6.509-14.144-8.2a3.402 3.402 0 0 0-5.04 2.035v.004l12.672 12.67z" style="fill:var(--color6, #30a851)"/><path fill="#d9e9eb" d="M43.751 1.725a2.7 2.7 0 0 0-.937-.57 3.2 3.2 0 0 0-1.142-.202q-.62 0-1.142.206a2.6 2.6 0 0 0-.896.59 2.8 2.8 0 0 0-.584.909q-.205.526-.205 1.16c0 .634.068.811.205 1.165q.205.53.579.919.38.389.891.6.517.211 1.132.211.553 0 1.019-.172c.466-.172.584-.279.819-.492q.354-.32.574-.767c.22-.447.241-.628.282-.988h-2.617v-.841h3.615l.031.403q0 .84-.271 1.539c-.271.699-.439.868-.773 1.209q-.496.507-1.183.787a4 4 0 0 1-1.505.275 4.2 4.2 0 0 1-1.572-.285 3.9 3.9 0 0 1-1.255-.806 3.7 3.7 0 0 1-.83-1.219 3.9 3.9 0 0 1-.292-1.514q0-.826.297-1.524.297-.703.83-1.224a3.8 3.8 0 0 1 1.26-.806 4.2 4.2 0 0 1 1.572-.29q.804 0 1.531.265.732.266 1.301.762l-.732.698zm2.351 5.796V.148h4.788v.954h-3.661v2.207h3.451v.954h-3.451v2.305h3.712v.954zm8.792 0h-1.127v-6.42h-2.402V.147h5.93v.954h-2.402v6.42zm4.953 0V.148h1.127v7.373zm5.126 0h-1.127v-6.42h-2.402V.147h5.93v.954h-2.402v6.42zm8.634.147a4.4 4.4 0 0 1-1.603-.285 3.9 3.9 0 0 1-1.275-.801 3.7 3.7 0 0 1-.835-1.219 3.9 3.9 0 0 1-.297-1.529q0-.83.297-1.529.297-.703.835-1.219a3.9 3.9 0 0 1 1.275-.801A4.4 4.4 0 0 1 73.607 0q.87 0 1.598.285.733.285 1.27.801a3.6 3.6 0 0 1 .84 1.219q.297.698.297 1.529 0 .826-.297 1.529a3.7 3.7 0 0 1-.84 1.219 3.8 3.8 0 0 1-1.27.801 4.4 4.4 0 0 1-1.598.285m0-.954q.615 0 1.137-.216c.522-.216.65-.346.906-.605q.384-.393.594-.914.215-.526.215-1.145c0-.619-.072-.795-.215-1.145a2.72 2.72 0 0 0-1.5-1.519q-.522-.216-1.137-.216c-.615 0-.789.072-1.136.216a2.7 2.7 0 0 0-.907.605q-.384.389-.599.914c-.215.525-.215.732-.215 1.145q0 .62.215 1.145c.215.525.343.657.599.919q.39.388.907.605.522.211 1.136.211m11.517.807h-1.239l-4.414-5.692v5.692h-1.126V.148h1.239l4.415 5.697V.148h1.126v7.373zM49.921 15.08a5 5 0 0 0-1.741-1.072 6.1 6.1 0 0 0-2.14-.374q-1.158 0-2.12.383a4.7 4.7 0 0 0-1.649 1.101 4.9 4.9 0 0 0-1.075 1.691q-.38.974-.379 2.163 0 1.2.379 2.202.39.993 1.086 1.72.707.728 1.669 1.121c.962.393 1.348.393 2.12.393q1.004 0 1.843-.295a4.6 4.6 0 0 0 1.475-.865q.645-.57 1.055-1.366c.41-.796.454-1.121.543-1.77h-4.854v-2.005h7.241l.072.983q0 1.681-.543 3.077a7 7 0 0 1-1.526 2.409q-.993 1.013-2.355 1.563c-1.362.55-1.912.551-3.011.551q-1.7 0-3.154-.58a7.9 7.9 0 0 1-2.53-1.612 7.5 7.5 0 0 1-1.68-2.438q-.594-1.396-.594-3.038 0-1.632.594-3.028a7.6 7.6 0 0 1 1.669-2.448 7.6 7.6 0 0 1 2.519-1.612q1.455-.58 3.144-.58a9 9 0 0 1 3.072.531q1.474.531 2.632 1.524zm9.577 11.512q-1.557 0-2.796-.669a5.15 5.15 0 0 1-1.946-1.819q-.707-1.16-.707-2.625c0-1.465.236-1.848.707-2.615a5.1 5.1 0 0 1 1.946-1.828q1.239-.669 2.796-.669 1.568 0 2.796.669c1.228.669 1.461 1.055 1.925 1.828q.707 1.15.707 2.615c0 1.465-.236 1.852-.707 2.625q-.696 1.15-1.925 1.819c-1.229.669-1.751.669-2.796.669m-.011-2.172q.819 0 1.465-.383c.646-.383.768-.606 1.014-1.052q.38-.668.379-1.514 0-.835-.379-1.494-.369-.669-1.014-1.052c-.645-.383-.918-.383-1.465-.383q-.809 0-1.465.383-.645.384-1.024 1.052a3 3 0 0 0-.369 1.494q0 .846.369 1.514.38.668 1.024 1.052.655.383 1.465.383m11.38 2.172q-1.557 0-2.796-.669a5.15 5.15 0 0 1-1.946-1.819q-.707-1.16-.707-2.625c0-1.465.236-1.848.707-2.615a5.1 5.1 0 0 1 1.946-1.828q1.239-.669 2.796-.669 1.568 0 2.796.669c1.228.669 1.461 1.055 1.925 1.828q.707 1.15.707 2.615c0 1.465-.235 1.852-.707 2.625q-.696 1.15-1.925 1.819c-1.229.669-1.751.669-2.796.669m-.011-2.172q.819 0 1.464-.383c.645-.383.768-.606 1.014-1.052q.379-.668.379-1.514 0-.835-.379-1.494-.369-.669-1.014-1.052c-.645-.383-.918-.383-1.464-.383q-.809 0-1.465.383-.645.384-1.024 1.052a3 3 0 0 0-.369 1.494q0 .846.369 1.514.38.668 1.024 1.052.655.383 1.465.383m10.878 2.054q-1.424 0-2.54-.659c-1.116-.659-1.331-1.039-1.761-1.799q-.645-1.15-.646-2.595 0-1.455.646-2.595c.646-1.14 1.017-1.36 1.761-1.799q1.116-.659 2.54-.659 1.116 0 2.058.413c.942.413 1.161.659 1.598 1.15l.123-1.366h2.212v9.565q0 1.632-.727 2.841a4.8 4.8 0 0 1-2.027 1.868q-1.311.669-3.103.669a7.08 7.08 0 0 1-4.455-1.524l1.035-1.976q1.372 1.327 3.256 1.327 1.065 0 1.844-.413a2.9 2.9 0 0 0 1.219-1.15q.44-.738.44-1.73v-.944q-.656.649-1.547 1.013c-.891.364-1.236.364-1.925.364zm.552-2.153q.81 0 1.465-.344a2.77 2.77 0 0 0 1.055-.963q.4-.609.4-1.386v-.433q0-.777-.4-1.376-.39-.6-1.055-.944a3.1 3.1 0 0 0-1.465-.354q-.84 0-1.505.383a2.8 2.8 0 0 0-1.055 1.032q-.378.659-.379 1.484c-.001.825.127 1.045.379 1.484q.39.659 1.055 1.042.666.374 1.505.374zm9.915 2.075h-2.693V11.65h2.693zm11.184-1.141q-1.914 1.337-4.188 1.337-1.649 0-2.96-.688c-1.311-.688-1.567-1.085-2.079-1.878q-.757-1.19-.757-2.694 0-1.425.686-2.546a5 5 0 0 1 1.894-1.77q1.209-.65 2.724-.649 1.577 0 2.765.718a4.9 4.9 0 0 1 1.864 1.976q.666 1.258.666 2.93v.315h-7.886q.185.669.645 1.18.47.511 1.168.796c.698.285.987.285 1.567.285q1.638 0 3.031-1.022zm-7.374-4.365h5.653a2.7 2.7 0 0 0-.471-1.288 2.56 2.56 0 0 0-.993-.855 2.9 2.9 0 0 0-1.362-.315q-.768 0-1.372.315c-.604.315-.73.501-.983.875a2.8 2.8 0 0 0-.471 1.268zm13.223 5.506V11.65h5.08q1.926 0 3.307.59 1.394.59 2.13 1.681.748 1.091.747 2.605 0 1.504-.747 2.605-.737 1.101-2.12 1.701-1.383.59-3.298.59h-2.396v4.974h-2.704zm2.704-7.246h2.121q1.771 0 2.724-.688.951-.698.952-1.937c.001-1.239-.321-1.465-.963-1.917q-.953-.678-2.714-.678h-2.121zm12.711 7.246h-2.693V11.65h2.693zm10.744 0h-2.192l-.144-1.209a3.84 3.84 0 0 1-1.403 1.042 4.65 4.65 0 0 1-1.864.364q-1.085 0-1.936-.403a3.4 3.4 0 0 1-1.341-1.121 2.8 2.8 0 0 1-.481-1.612q0-.954.522-1.671.532-.727 1.444-1.14.921-.413 2.099-.413.717 0 1.434.157.727.157 1.341.442v-.315q0-.649-.368-1.121c-.368-.472-.577-.557-.993-.727a3.6 3.6 0 0 0-1.403-.265q-.706 0-1.414.236a4.6 4.6 0 0 0-1.321.678l-.717-1.897a9.3 9.3 0 0 1 2.007-.787 8 8 0 0 1 2.017-.265q1.444 0 2.499.551 1.055.54 1.628 1.553.584 1.003.584 2.369v5.554zm-5.08-1.75q.666 0 1.229-.265.574-.266.932-.737.368-.482.389-1.101v-.108a3.7 3.7 0 0 0-1.086-.511 4.1 4.1 0 0 0-1.219-.187q-.942 0-1.546.413-.604.404-.604 1.062 0 .403.246.737.246.325.676.511.44.187.983.187zm11.297 6.665h-2.694l2.131-4.955-5.079-9.791h2.837l3.441 7.029 3.031-7.029h2.694z" style="fill:var(--color1, #d9e9eb)"/></symbol><symbol id="icon-reward" viewBox="0 0 32 32"><path fill="#6e5d4c" stroke="#6e5d4c" stroke-width="2" d="m11.521 24.219-.021-.042zm8.979-.041-.021.042zm-9.065-.141-.025-.058zm9.155-.058-.025.058zm-9.235-.132-.032-.083zm9.321-.083-.032.083zm-9.397-.118-.038-.115q.017.058.038.115zm9.479-.115-.038.115zm-9.61-.323-.044-.19-.004-.021q.021.107.048.212zm-.07-.336-.016-.089zm9.859-.088-.015.089zm-9.889-.104q-.011-.075-.019-.15.008.075.019.15zm9.923-.15q-.008.075-.019.15.011-.075.019-.15zm-9.949-.067zm9.968-.167q-.005.084-.013.167.008-.083.013-.167zm-9.99-.3zm.01-.304zm9.967-.167zm-9.948-.052zm9.921-.171zm-9.887-.086zm9.841-.191zm-9.432-1.146-.048.104q.023-.053.048-.104zm9.104.104-.048-.104zm-3.728-3.208 1.523.821A5 5 0 0 1 15.999 17a5 5 0 0 0-2.372.596l1.523-.821-.184-.113a2 2 0 0 0 2.063 0l-.183.113zM7 5h4v9.208l-5.053-3.123A2 2 0 0 1 5 9.386V7a2 2 0 0 1 2-2zm18 0a2 2 0 0 1 2 2v2.386a2 2 0 0 1-.842 1.629l-.106.07L21 14.208V5zm-4.102 17.997-.003.021-.045.194q.026-.107.048-.216zm-9.893-.78-.003-.133q0 .066.003.133zm9.994-.183q0 .091-.004.184.003-.091.004-.184z" style="fill:var(--color2, #6e5d4c);stroke:var(--color2, #6e5d4c)"/></symbol><symbol id="icon-route" viewBox="0 0 32 32"><path fill="#6e5d4c" stroke="#6e5d4c" stroke-width="1.333" d="M24 22c-.546 0-1.035.192-1.422.58A1.96 1.96 0 0 0 22 23.999c-.001.547.192 1.036.579 1.423s.875.579 1.421.577V26l.001-.001h.001c.545-.001 1.033-.192 1.419-.579s.579-.876.578-1.422a1.96 1.96 0 0 0-.578-1.419 1.95 1.95 0 0 0-1.422-.58zM8 6c-.546 0-1.035.192-1.422.58A1.96 1.96 0 0 0 6 7.999c-.001.547.192 1.036.579 1.423s.875.579 1.421.577V10l.001-.001h.001c.545-.001 1.033-.192 1.419-.579s.579-.876.578-1.422a1.96 1.96 0 0 0-.578-1.419 1.95 1.95 0 0 0-1.422-.58zm-.667 5.303-.434-.161a3.46 3.46 0 0 1-1.612-1.22A3.14 3.14 0 0 1 4.667 8c0-.936.32-1.711.971-2.362S7.064 4.667 8 4.667s1.711.32 2.362.971.971 1.426.971 2.362c0 .729-.207 1.362-.619 1.922a3.44 3.44 0 0 1-1.612 1.219l-.436.161v14.697h6.667V4.666h9.333v16.03l.434.161a3.45 3.45 0 0 1 1.613 1.222c.413.56.62 1.192.619 1.919v.001c0 .936-.32 1.711-.971 2.362s-1.426.971-2.362.971-1.711-.32-2.362-.971-.971-1.426-.971-2.362c0-.728.207-1.369.623-1.941a3.22 3.22 0 0 1 1.593-1.195l.451-.154V5.999h-6.667v21.333H7.333v-16.03z" style="fill:var(--color2, #6e5d4c);stroke:var(--color2, #6e5d4c)"/></symbol><symbol id="icon-speed" viewBox="0 0 32 32"><path fill="none" stroke="#6e5d4c" stroke-linejoin="round" stroke-width="2.667" d="M20.198 12.519s-2.153 6.068-3.176 7.127a2.67 2.67 0 0 1-3.746.041 2.664 2.664 0 0 1-.09-3.745c1.023-1.06 7.012-3.423 7.012-3.423z" style="stroke:var(--color2, #6e5d4c)"/><path fill="none" stroke="#6e5d4c" stroke-linecap="round" stroke-linejoin="round" stroke-width="2.667" d="M25.9 25.9A13.97 13.97 0 0 0 30 16c0-7.732-6.268-14-14-14S2 8.268 2 16a13.96 13.96 0 0 0 4.1 9.9M16 2.667v2.667m9.897 2.094-2.072 1.678m4.523 9.049-2.598-.6m-22.099.6 2.599-.6M6.103 7.428l2.072 1.678" style="stroke:var(--color2, #6e5d4c)"/></symbol><symbol id="icon-swipe" viewBox="0 0 32 32"><path fill="#6e5d4c" stroke="#6e5d4c" stroke-width="1.333" d="M13.335 8.667c.207 0 .352.062.478.189s.188.27.187.475v10.003h2.667v-4.667c0-.21.064-.353.188-.477a.63.63 0 0 1 .48-.189c.207 0 .352.062.478.189s.188.27.187.475v4.67h2.667v-3.333c0-.21.064-.353.188-.477a.63.63 0 0 1 .48-.189c.207 0 .352.062.478.189s.188.27.187.475v3.337h2.667v-.667c0-.21.064-.353.188-.477a.63.63 0 0 1 .48-.189c.207 0 .352.062.478.189s.188.27.187.475v5.337c0 1.288-.451 2.375-1.371 3.296s-2.007 1.371-3.296 1.371h-5.566q-.67 0-1.281-.251a3.3 3.3 0 0 1-1.081-.721h-.001l-6.337-6.369.538-.555c.273-.272.584-.45.944-.542.321-.082.63-.088.938-.021l.132.033 3.049.878V9.338c0-.21.064-.353.188-.477a.63.63 0 0 1 .48-.189zM16 2q3.02 0 5.809.995c2.789.995 3.56 1.625 5.102 2.887L28 6.775V3.334h.667v5.333h-5.333V8h4.969l-1.329-1.167a16.8 16.8 0 0 0-5.102-3.089Q19.055 2.667 16 2.667c-3.055 0-3.995.359-5.872 1.077a16.8 16.8 0 0 0-5.102 3.089L3.697 8h4.969v.667H3.333V3.334H4v3.441l1.089-.893Q7.4 3.989 10.191 2.995C12.982 2.001 13.986 2 16 2z" style="fill:var(--color2, #6e5d4c);stroke:var(--color2, #6e5d4c)"/></symbol></defs></svg>